<svg width="245" height="60" viewBox="0 0 245 60" fill="none" xmlns="http://www.w3.org/2000/svg">
<path fill-rule="evenodd" clip-rule="evenodd" d="M0.0769363 30L0.153873 60L13.5797 59.9958C28.1117 59.9912 29.3616 59.891 34.1808 58.3432C43.1978 55.4471 49.8293 48.2343 52.395 38.5325C53.0829 35.9321 53.1927 34.8906 53.2211 30.7005C53.2573 25.3598 52.9332 23.1351 51.5273 19.0713C48.239 9.56766 40.9821 3.07403 31.0786 0.772961C29.1435 0.323198 26.7302 0.22926 14.4079 0.12354L0 0L0.0769363 30ZM27.7599 5.77443C28.3669 6.15864 28.3923 13.0546 27.7955 15.4466C26.7042 19.8207 24.474 23.5453 20.9055 26.9553C17.2633 30.4356 13.0816 32.9327 7.62107 34.8882L5.43371 35.6714V20.5752V5.47871L16.3705 5.48325C22.7356 5.48596 27.4965 5.60769 27.7599 5.77443ZM43.4956 14.7766C46.3847 18.9275 47.6782 23.0886 47.8915 28.9177C48.1168 35.0755 47.0874 39.5831 44.4713 43.8946C40.325 50.7284 33.8447 54.1712 24.2903 54.6164L20.3681 54.7995L22.6309 53.2741C32.2827 46.7684 39.1224 36.8395 40.8723 26.7934C41.7162 21.9487 41.3185 16.3005 39.8296 11.9741L39.206 10.1627L40.9006 11.8231C41.8329 12.7362 43.0005 14.0653 43.4956 14.7766ZM35.1767 14.9935C36.0441 18.1651 35.9961 25.3072 35.0862 28.4634C32.2803 38.1972 24.2474 47.2876 14.445 51.8218C11.994 52.9557 7.33264 54.4119 6.15418 54.4119H5.43371V47.8398V41.2676L8.40369 40.2612C19.1003 36.6359 27.0337 30.2942 30.9444 22.2429C32.2936 19.4649 33.4862 15.2663 33.4902 13.2814C33.4914 12.6719 33.5801 11.9442 33.6875 11.6642C33.9322 11.0257 34.3425 11.9424 35.1767 14.9935Z" fill="#00BAFF"/>
<path d="M77.2758 34.5432H65.2097V0.465901H77.3755C80.7992 0.465901 83.7465 1.14811 86.2173 2.51254C88.6882 3.86587 90.5884 5.81267 91.918 8.35294C93.2586 10.8932 93.929 13.9327 93.929 17.4713C93.929 21.021 93.2586 24.0716 91.918 26.6229C90.5884 29.1743 88.6771 31.1322 86.1841 32.4966C83.7022 33.861 80.7327 34.5432 77.2758 34.5432ZM72.4062 28.37H76.9766C79.104 28.37 80.8934 27.9929 82.3449 27.2386C83.8074 26.4732 84.9044 25.2918 85.6356 23.6944C86.378 22.0859 86.7492 20.0116 86.7492 17.4713C86.7492 14.9532 86.378 12.8955 85.6356 11.2981C84.9044 9.70072 83.813 8.52488 82.3615 7.77056C80.91 7.01625 79.1206 6.63909 76.9933 6.63909H72.4062V28.37Z" fill="#00BAFF"/>
<path d="M106.456 0.465901V34.5432H99.2598V0.465901H106.456Z" fill="#00BAFF"/>
<path d="M134.947 11.4811C134.714 10.6714 134.387 9.95586 133.966 9.33466C133.545 8.70237 133.03 8.16991 132.421 7.73729C131.822 7.29357 131.135 6.95524 130.36 6.72229C129.595 6.48934 128.748 6.37286 127.817 6.37286C126.077 6.37286 124.548 6.80548 123.23 7.67073C121.922 8.53597 120.903 9.79501 120.172 11.4479C119.441 13.0896 119.075 15.0974 119.075 17.4713C119.075 19.8452 119.435 21.8641 120.155 23.528C120.875 25.1919 121.895 26.4621 123.213 27.3384C124.532 28.2036 126.089 28.6363 127.883 28.6363C129.512 28.6363 130.903 28.3479 132.055 27.771C133.218 27.1831 134.105 26.3567 134.714 25.2918C135.335 24.2269 135.645 22.9678 135.645 21.5146L137.108 21.731H128.332V16.3065H142.576V20.5995C142.576 23.5946 141.944 26.1681 140.681 28.3201C139.418 30.4611 137.678 32.1139 135.462 33.2786C133.246 34.4323 130.709 35.0091 127.85 35.0091C124.659 35.0091 121.856 34.3047 119.441 32.8959C117.025 31.476 115.142 29.4627 113.79 26.8559C112.449 24.2379 111.779 21.1319 111.779 17.5378C111.779 14.7757 112.178 12.3131 112.975 10.15C113.784 7.97578 114.914 6.13436 116.366 4.62573C117.817 3.1171 119.507 1.96899 121.435 1.18139C123.363 0.393797 125.451 0 127.701 0C129.629 0 131.424 0.282869 133.086 0.848606C134.748 1.40325 136.221 2.19084 137.506 3.21139C138.803 4.23193 139.861 5.4466 140.681 6.8554C141.501 8.2531 142.027 9.79501 142.26 11.4811H134.947Z" fill="#00BAFF"/>
<path d="M155.178 0.465901V34.5432H147.981V0.465901H155.178Z" fill="#00BAFF"/>
<path d="M159.802 6.40614V0.465901H187.757V6.40614H177.336V34.5432H170.223V6.40614H159.802Z" fill="#00BAFF"/>
<path d="M194.068 34.5432H186.357L198.107 0.465901H207.381L219.114 34.5432H211.403L202.877 8.2531H202.611L194.068 34.5432ZM193.586 21.1486H211.802V26.7727H193.586V21.1486Z" fill="#00BAFF"/>
<path d="M223.211 34.5432V0.465901H230.408V28.603H245V34.5432H223.211Z" fill="#00BAFF"/>
<path d="M67.994 41.2617V59.7364H65.2098V41.2617H67.994Z" fill="white"/>
<path d="M99.6293 41.2617V59.7364H97.0704L87.6906 46.1871H87.5194V59.7364H84.7352V41.2617H87.3121L96.7009 54.8291H96.8721V41.2617H99.6293Z" fill="white"/>
<path d="M117.99 41.2617L123.126 56.3085H123.333L128.469 41.2617H131.479L124.838 59.7364H121.621L114.981 41.2617H117.99Z" fill="white"/>
<path d="M161.943 50.4991C161.943 52.4716 161.582 54.1676 160.861 55.5868C160.141 57.0001 159.152 58.0886 157.897 58.8524C156.648 59.6101 155.227 59.989 153.635 59.989C152.037 59.989 150.611 59.6101 149.355 58.8524C148.106 58.0886 147.121 56.9971 146.4 55.5778C145.679 54.1585 145.319 52.4656 145.319 50.4991C145.319 48.5265 145.679 46.8336 146.4 45.4203C147.121 44.001 148.106 42.9125 149.355 42.1548C150.611 41.391 152.037 41.0091 153.635 41.0091C155.227 41.0091 156.648 41.391 157.897 42.1548C159.152 42.9125 160.141 44.001 160.861 45.4203C161.582 46.8336 161.943 48.5265 161.943 50.4991ZM159.185 50.4991C159.185 48.9956 158.942 47.7297 158.456 46.7013C157.975 45.6669 157.314 44.8851 156.473 44.3559C155.638 43.8206 154.692 43.553 153.635 43.553C152.572 43.553 151.623 43.8206 150.788 44.3559C149.953 44.8851 149.292 45.6669 148.806 46.7013C148.325 47.7297 148.085 48.9956 148.085 50.4991C148.085 52.0025 148.325 53.2715 148.806 54.3059C149.292 55.3343 149.953 56.1161 150.788 56.6513C151.623 57.1805 152.572 57.4451 153.635 57.4451C154.692 57.4451 155.638 57.1805 156.473 56.6513C157.314 56.1161 157.975 55.3343 158.456 54.3059C158.942 53.2715 159.185 52.0025 159.185 50.4991Z" fill="white"/>
<path d="M180.885 41.2617V59.7364H178.1V41.2617H180.885Z" fill="white"/>
<path d="M212.952 47.2696H210.141C210.033 46.6682 209.832 46.139 209.538 45.6819C209.243 45.2249 208.883 44.837 208.456 44.5182C208.03 44.1995 207.552 43.9589 207.024 43.7966C206.501 43.6342 205.945 43.553 205.357 43.553C204.294 43.553 203.341 43.8206 202.5 44.3559C201.665 44.8911 201.005 45.6759 200.518 46.7103C200.038 47.7447 199.797 49.0076 199.797 50.4991C199.797 52.0025 200.038 53.2715 200.518 54.3059C201.005 55.3403 201.669 56.1221 202.509 56.6513C203.35 57.1805 204.297 57.4451 205.348 57.4451C205.93 57.4451 206.483 57.367 207.006 57.2106C207.534 57.0482 208.012 56.8107 208.438 56.4979C208.865 56.1852 209.225 55.8033 209.52 55.3523C209.82 54.8952 210.027 54.372 210.141 53.7827L212.952 53.7917C212.802 54.6998 212.511 55.5357 212.078 56.2995C211.652 57.0572 211.102 57.7128 210.43 58.266C209.763 58.8133 209 59.2373 208.141 59.538C207.282 59.8387 206.345 59.989 205.33 59.989C203.732 59.989 202.308 59.6101 201.059 58.8524C199.809 58.0886 198.824 56.9971 198.103 55.5778C197.389 54.1585 197.031 52.4656 197.031 50.4991C197.031 48.5265 197.392 46.8336 198.112 45.4203C198.833 44.001 199.818 42.9125 201.068 42.1548C202.317 41.391 203.738 41.0091 205.33 41.0091C206.309 41.0091 207.222 41.1505 208.069 41.4331C208.922 41.7097 209.688 42.1187 210.366 42.6599C211.045 43.1952 211.607 43.8507 212.051 44.6265C212.496 45.3963 212.796 46.2773 212.952 47.2696Z" fill="white"/>
<path d="M245 50.4991C245 52.4716 244.64 54.1676 243.919 55.5868C243.198 57.0001 242.21 58.0886 240.954 58.8524C239.705 59.6101 238.284 59.989 236.692 59.989C235.095 59.989 233.668 59.6101 232.413 58.8524C231.163 58.0886 230.178 56.9971 229.457 55.5778C228.736 54.1585 228.376 52.4656 228.376 50.4991C228.376 48.5265 228.736 46.8336 229.457 45.4203C230.178 44.001 231.163 42.9125 232.413 42.1548C233.668 41.391 235.095 41.0091 236.692 41.0091C238.284 41.0091 239.705 41.391 240.954 42.1548C242.21 42.9125 243.198 44.001 243.919 45.4203C244.64 46.8336 245 48.5265 245 50.4991ZM242.243 50.4991C242.243 48.9956 242 47.7297 241.513 46.7013C241.032 45.6669 240.372 44.8851 239.531 44.3559C238.696 43.8206 237.75 43.553 236.692 43.553C235.629 43.553 234.68 43.8206 233.845 44.3559C233.01 44.8851 232.349 45.6669 231.863 46.7013C231.382 47.7297 231.142 48.9956 231.142 50.4991C231.142 52.0025 231.382 53.2715 231.863 54.3059C232.349 55.3343 233.01 56.1161 233.845 56.6513C234.68 57.1805 235.629 57.4451 236.692 57.4451C237.75 57.4451 238.696 57.1805 239.531 56.6513C240.372 56.1161 241.032 55.3343 241.513 54.3059C242 53.2715 242.243 52.0025 242.243 50.4991Z" fill="white"/>
</svg>
