<svg width="748" height="90" viewBox="0 0 748 90" fill="none" xmlns="http://www.w3.org/2000/svg">
<path d="M691.091 90V0H747.273V9.66797H702.364V40.0781H744.364V49.7461H702.364V80.332H748V90H691.091Z" fill="#21242B"/>
<path d="M632.091 28.5741H620.818C620.151 25.5228 618.985 22.8422 617.318 20.5323C615.682 18.2224 613.682 16.2833 611.318 14.7148C608.985 13.1179 606.394 11.9202 603.545 11.1217C600.697 10.3232 597.727 9.92395 594.636 9.92395C589 9.92395 583.894 11.2643 579.318 13.9449C574.773 16.6255 571.151 20.5751 568.455 25.7937C565.788 31.0124 564.455 37.4145 564.455 45C564.455 52.5855 565.788 58.9876 568.455 64.2063C571.151 69.4249 574.773 73.3745 579.318 76.0551C583.894 78.7357 589 80.076 594.636 80.076C597.727 80.076 600.697 79.6768 603.545 78.8783C606.394 78.0798 608.985 76.8964 611.318 75.3279C613.682 73.731 615.682 71.7776 617.318 69.4677C618.985 67.1293 620.151 64.4487 620.818 61.4259H632.091C631.242 65.903 629.697 69.9097 627.454 73.4458C625.212 76.9819 622.424 79.9905 619.091 82.4715C615.758 84.924 612.015 86.7918 607.864 88.0751C603.742 89.3584 599.333 90 594.636 90C586.697 90 579.636 88.1749 573.455 84.5247C567.273 80.8745 562.409 75.6844 558.864 68.9544C555.318 62.2243 553.545 54.2395 553.545 45C553.545 35.7605 555.318 27.7757 558.864 21.0456C562.409 14.3156 567.273 9.12548 573.455 5.47529C579.636 1.8251 586.697 0 594.636 0C599.333 0 603.742 0.641635 607.864 1.92491C612.015 3.20818 615.758 5.09031 619.091 7.57129C622.424 10.0238 625.212 13.0181 627.454 16.5542C629.697 20.0618 631.242 24.0684 632.091 28.5741Z" fill="#21242B"/>
<path d="M494.545 0V90H483.273V0H494.545Z" fill="#21242B"/>
<path d="M424.273 45C424.273 54.2395 422.5 62.2243 418.955 68.9544C415.409 75.6844 410.545 80.8745 404.364 84.5247C398.182 88.1749 391.121 90 383.182 90C375.242 90 368.182 88.1749 362 84.5247C355.818 80.8745 350.955 75.6844 347.409 68.9544C343.864 62.2243 342.091 54.2395 342.091 45C342.091 35.7605 343.864 27.7757 347.409 21.0456C350.955 14.3156 355.818 9.12548 362 5.47529C368.182 1.8251 375.242 0 383.182 0C391.121 0 398.182 1.8251 404.364 5.47529C410.545 9.12548 415.409 14.3156 418.955 21.0456C422.5 27.7757 424.273 35.7605 424.273 45ZM413.364 45C413.364 37.4145 412.015 31.0124 409.318 25.7937C406.652 20.5751 403.03 16.6255 398.455 13.9449C393.909 11.2643 388.818 9.92395 383.182 9.92395C377.545 9.92395 372.439 11.2643 367.864 13.9449C363.318 16.6255 359.697 20.5751 357 25.7937C354.333 31.0124 353 37.4145 353 45C353 52.5855 354.333 58.9876 357 64.2063C359.697 69.4249 363.318 73.3745 367.864 76.0551C372.439 78.7357 377.545 80.076 383.182 80.076C388.818 80.076 393.909 78.7357 398.455 76.0551C403.03 73.3745 406.652 69.4249 409.318 64.2063C412.015 58.9876 413.364 52.5855 413.364 45Z" fill="#21242B"/>
<path d="M214.909 0L242.545 75.7617H243.636L271.273 0H283.091L248.909 90H237.273L203.091 0H214.909Z" fill="#21242B"/>
<path d="M144.091 0V90H133.182L82.4546 19.3359H81.5455V90H70.2727V0H81.1818L132.091 70.8398H133V0H144.091Z" fill="#21242B"/>
<path d="M11.2727 0V90H0V0H11.2727Z" fill="#21242B"/>
<path d="M11.2727 0V90H0V0H11.2727Z" fill="#21242B"/>
</svg>
